<?xml version="1.0" encoding="UTF-8"?>
<svg width="180px" height="180px" viewBox="0 0 180 180" version="1.1" xmlns="http://www.w3.org/2000/svg" xmlns:xlink="http://www.w3.org/1999/xlink">
    <title>Artboard Copy 2</title>
    <g id="Artboard-Copy-2" stroke="none" stroke-width="1" fill="none" fill-rule="evenodd">
        <path d="M58.0678617,108.294044 C60.2539653,108.294044 62.0438376,107.709927 63.4374787,106.541693 C64.8311198,105.373459 65.5825929,103.89279 65.6918981,102.099687 L65.6918981,102.099687 L68.8070957,49.2031348 L68.8070957,48.3880878 C68.8070957,45.1822362 67.8643385,42.6827586 65.9788242,40.8896552 C64.0933098,39.0965517 61.4563223,38.2 58.0678617,38.2 C54.7340536,38.2 52.1107293,39.12372 50.1978886,40.9711599 C48.2850479,42.8185998 47.3286276,45.3452456 47.3286276,48.5510972 L47.3286276,48.5510972 L47.3286276,49.2031348 L50.5258041,102.099687 C50.6351093,103.838454 51.4002456,105.305538 52.821213,106.50094 C54.2421803,107.696343 55.9910632,108.294044 58.0678617,108.294044 Z M58.0678617,142.2 C62.9319422,142.2 66.8396025,140.909509 69.7908424,138.328527 C72.7420823,135.747544 74.2177022,132.419436 74.2177022,128.344201 C74.2177022,124.268966 72.7557454,120.995193 69.8318318,118.522884 C66.9079182,116.050575 62.9865948,114.81442 58.0678617,114.81442 C53.3677389,114.81442 49.5147312,116.077743 46.5088387,118.604389 C43.5029462,121.131034 42,124.377638 42,128.344201 C42,132.365099 43.5029462,135.679624 46.5088387,138.287774 C49.5147312,140.895925 53.3677389,142.2 58.0678617,142.2 Z M122.850159,108.294044 C125.036263,108.294044 126.826135,107.709927 128.219776,106.541693 C129.613418,105.373459 130.364891,103.89279 130.474196,102.099687 L130.474196,102.099687 L133.589394,49.2031348 L133.589394,48.3880878 C133.589394,45.1822362 132.646636,42.6827586 130.761122,40.8896552 C128.875608,39.0965517 126.23862,38.2 122.850159,38.2 C119.516351,38.2 116.893027,39.12372 114.980186,40.9711599 C113.067346,42.8185998 112.110925,45.3452456 112.110925,48.5510972 L112.110925,48.5510972 L112.110925,49.2031348 L115.308102,102.099687 C115.417407,103.838454 116.182543,105.305538 117.603511,106.50094 C119.024478,107.696343 120.773361,108.294044 122.850159,108.294044 Z M122.850159,142.2 C127.71424,142.2 131.6219,140.909509 134.57314,138.328527 C137.52438,135.747544 139,132.419436 139,128.344201 C139,124.268966 137.538043,120.995193 134.61413,118.522884 C131.690216,116.050575 127.768893,114.81442 122.850159,114.81442 C118.150037,114.81442 114.297029,116.077743 111.291137,118.604389 C108.285244,121.131034 106.782298,124.377638 106.782298,128.344201 C106.782298,132.365099 108.285244,135.679624 111.291137,138.287774 C114.297029,140.895925 118.150037,142.2 122.850159,142.2 Z" id="!!" fill="#000000" fill-rule="nonzero"></path>
    </g>
</svg>